<?xml version="1.0" standalone="no"?>
<!DOCTYPE svg PUBLIC "-//W3C//DTD SVG 20010904//EN"
 "http://www.w3.org/TR/2001/REC-SVG-20010904/DTD/svg10.dtd">
<svg version="1.0" xmlns="http://www.w3.org/2000/svg"
 width="1080.000000pt" height="1080.000000pt" viewBox="0 0 1080.000000 1080.000000"
 preserveAspectRatio="xMidYMid meet">

<g transform="translate(0.000000,1080.000000) scale(0.100000,-0.100000)"
fill="#000000" stroke="none">
<path d="M6162 8138 c-35 -260 -65 -496 -69 -525 l-6 -52 919 -4 c986 -4 1000
-4 1209 -57 185 -48 316 -143 382 -281 109 -223 92 -618 -34 -827 -99 -163
-241 -256 -484 -316 -236 -58 -253 -59 -1266 -63 -513 -2 -933 -6 -933 -8 0
-10 -130 -993 -135 -1022 l-6 -33 843 0 c850 0 1082 -7 1283 -36 270 -39 424
-101 541 -218 120 -120 170 -251 181 -476 9 -193 -17 -351 -81 -485 -109 -229
-298 -354 -645 -425 -255 -52 -278 -53 -1343 -57 l-998 -4 -5 -22 c-5 -25
-135 -1010 -135 -1027 0 -16 2233 -8 2440 9 586 47 890 120 1187 285 265 148
534 412 678 667 172 307 258 676 241 1039 -18 376 -139 663 -381 905 -204 205
-484 348 -800 411 -89 17 -131 34 -87 34 41 0 176 31 287 67 456 145 786 462
939 902 65 186 81 295 81 551 -1 250 -14 341 -76 517 -146 412 -477 728 -924
883 -344 118 -630 140 -1866 140 l-875 0 -62 -472z"/>
<path d="M830 7835 l0 -695 2385 0 2385 0 4 23 c3 12 42 315 86 672 44 358 83
660 86 673 l4 22 -2475 0 -2475 0 0 -695z"/>
<path d="M830 5505 l0 -1115 2215 0 2215 0 0 23 c1 12 63 514 139 1115 l138
1092 -2354 0 -2353 0 0 -1115z"/>
<path d="M830 3039 l0 -832 1358 8 c746 4 1681 11 2077 14 l719 6 97 770 c54
424 100 791 103 818 l7 47 -2181 0 -2180 0 0 -831z"/>
</g>
</svg>
